<svg width="3" height="6" viewBox="0 0 3 6" fill="none" xmlns="http://www.w3.org/2000/svg">
<path d="M2.93806 2.99163C2.97154 3.02511 2.98828 3.06362 2.98828 3.10714C2.98828 3.15067 2.97154 3.18917 2.93806 3.22266L0.597656 5.56306C0.564174 5.59654 0.52567 5.61328 0.482143 5.61328C0.438616 5.61328 0.400112 5.59654 0.366629 5.56306L0.115513 5.31194C0.0820313 5.27846 0.0652902 5.23996 0.0652902 5.19643C0.0652902 5.1529 0.0820313 5.1144 0.115513 5.08092L2.08929 3.10714L0.115513 1.13337C0.0820313 1.09989 0.0652902 1.06138 0.0652902 1.01786C0.0652902 0.97433 0.0820313 0.935826 0.115513 0.902344L0.366629 0.651227C0.400112 0.617745 0.438616 0.601004 0.482143 0.601004C0.52567 0.601004 0.564174 0.617745 0.597656 0.651227L2.93806 2.99163Z" fill="#163154"/>
</svg>
