<svg width="21" height="33" viewBox="0 0 21 33" fill="none" xmlns="http://www.w3.org/2000/svg">
<path d="M20.7681 29.041L18.9145 13.2516C18.8129 12.389 18.3983 11.5937 17.7493 11.0165C17.1003 10.4393 16.262 10.1203 15.3935 10.1202H15.1164V8.91077C15.1159 8.44938 14.9324 8.00702 14.6061 7.68077C14.2799 7.35452 13.8375 7.17102 13.3761 7.17054H12.6914V2.97155C13.7296 3.00454 14.75 3.25077 15.689 3.69491C16.628 4.13905 17.4656 4.77162 18.1498 5.55328C18.2286 5.64325 18.3398 5.69824 18.4592 5.70616C18.469 5.70616 18.479 5.70616 18.4891 5.70616C18.5983 5.70611 18.7039 5.66655 18.7863 5.59479L20.3386 4.23663C20.4287 4.15781 20.4837 4.04645 20.4917 3.92704C20.4997 3.80763 20.4599 3.68994 20.3812 3.59984C19.3917 2.469 18.1719 1.56277 16.8035 0.941909C15.4351 0.321048 13.9499 -9.91893e-05 12.4472 2.29803e-08L7.02079 2.29803e-08C6.62763 2.29803e-08 6.25057 0.156183 5.97256 0.434191C5.69455 0.712199 5.53837 1.08926 5.53837 1.48242C5.53837 1.87558 5.69455 2.25264 5.97256 2.53065C6.25057 2.80866 6.62763 2.96484 7.02079 2.96484H8.30856V7.17054H7.62381C7.16242 7.17102 6.72006 7.35452 6.39381 7.68077C6.06755 8.00702 5.88406 8.44938 5.88358 8.91077V10.1202H5.60643C4.73789 10.1203 3.89962 10.4393 3.25062 11.0165C2.60162 11.5937 2.18703 12.389 2.08549 13.2516L0.231814 29.0408C0.173319 29.5378 0.220744 30.0417 0.370967 30.5191C0.52119 30.9965 0.770806 31.4367 1.10339 31.8107C1.43598 32.1847 1.84399 32.4841 2.30058 32.689C2.75718 32.894 3.252 33 3.7525 33H17.2474C17.7478 33 18.2426 32.894 18.6991 32.6891C19.1556 32.4842 19.5636 32.1849 19.8961 31.8111C20.2287 31.4372 20.4783 30.9971 20.6286 30.5198C20.7789 30.0425 20.8265 29.5388 20.7681 29.0418V29.041ZM6.44071 1.48268C6.44092 1.3289 6.5021 1.18147 6.61084 1.07273C6.71958 0.963987 6.86701 0.902806 7.02079 0.902602H12.4472C13.7453 0.902599 15.03 1.16475 16.2243 1.67333C17.4185 2.18191 18.4978 2.92645 19.3973 3.86229L18.5228 4.62722C17.7328 3.81554 16.7881 3.17039 15.7446 2.72989C14.7011 2.28939 13.5799 2.06246 12.4472 2.0625H7.02079C6.86705 2.0623 6.71966 2.00115 6.61093 1.89246C6.50219 1.78378 6.44098 1.63642 6.44071 1.48268ZM9.21091 2.96484H11.789V7.17054H9.21091V2.96484ZM6.78592 8.91077C6.7862 8.68863 6.87456 8.47567 7.03164 8.3186C7.18871 8.16152 7.40167 8.07316 7.62381 8.07288H13.3761C13.5983 8.07316 13.8112 8.16152 13.9683 8.3186C14.1254 8.47567 14.2137 8.68863 14.214 8.91077V10.1202H6.78592V8.91077ZM19.2218 31.2116C18.9738 31.4901 18.6697 31.7131 18.3294 31.8658C17.9891 32.0185 17.6204 32.0975 17.2474 32.0977H3.7525C3.37947 32.0977 3.01067 32.0187 2.67036 31.8659C2.33004 31.7132 2.02593 31.4901 1.77801 31.2114C1.53009 30.9326 1.344 30.6046 1.23196 30.2488C1.11992 29.893 1.08448 29.5175 1.12797 29.147L2.9819 13.3578C3.05744 12.7147 3.36643 12.1218 3.85022 11.6914C4.33401 11.2611 4.95895 11.0234 5.60643 11.0233H15.3935C16.041 11.0234 16.6659 11.2611 17.1497 11.6914C17.6335 12.1218 17.9425 12.7147 18.018 13.3578L19.872 29.147C19.9151 29.5174 19.8795 29.8927 19.7674 30.2484C19.6554 30.604 19.4694 30.932 19.2218 31.2108V31.2116Z" fill="#203C60"/>
<path d="M16.3538 13.5524C16.3261 13.3172 16.213 13.1003 16.036 12.9428C15.859 12.7854 15.6304 12.6984 15.3935 12.6983H5.6064C5.36951 12.6984 5.14088 12.7854 4.96387 12.9428C4.78685 13.1003 4.67377 13.3172 4.64605 13.5524L2.79135 29.3416C2.77532 29.4773 2.78822 29.6149 2.82922 29.7452C2.87021 29.8755 2.93836 29.9957 3.02918 30.0977C3.11999 30.1998 3.23141 30.2815 3.35608 30.3373C3.48075 30.3932 3.61585 30.422 3.75247 30.4219H17.2474C17.384 30.4221 17.5192 30.3933 17.6439 30.3375C17.7686 30.2817 17.8801 30.2 17.9709 30.0979C18.0617 29.9958 18.1299 29.8756 18.1708 29.7453C18.2118 29.6149 18.2246 29.4773 18.2085 29.3416L16.3538 13.5524ZM17.2956 29.4969C17.2901 29.5043 17.2828 29.5103 17.2744 29.5141C17.2659 29.518 17.2566 29.5196 17.2474 29.5188H3.75247C3.74337 29.5187 3.73438 29.5167 3.72609 29.513C3.71781 29.5092 3.7104 29.5038 3.70437 29.497C3.69834 29.4901 3.69381 29.4821 3.69108 29.4735C3.68835 29.4648 3.68748 29.4556 3.68853 29.4466L5.54221 13.6576C5.5441 13.6419 5.55167 13.6275 5.5635 13.617C5.57532 13.6065 5.59059 13.6007 5.6064 13.6006H15.3935C15.4093 13.6007 15.4246 13.6065 15.4364 13.6171C15.4481 13.6276 15.4556 13.6422 15.4574 13.6579L17.3113 29.4463C17.3133 29.4554 17.3129 29.4648 17.3101 29.4737C17.3074 29.4825 17.3024 29.4905 17.2956 29.4969Z" fill="#203C60"/>
<path d="M5.49146 27.457C5.3718 27.457 5.25704 27.5046 5.17243 27.5892C5.08782 27.6738 5.04028 27.7885 5.04028 27.9082C5.04028 28.0279 5.08782 28.1426 5.17243 28.2272C5.25704 28.3118 5.3718 28.3594 5.49146 28.3594H15.5083C15.6279 28.3594 15.7427 28.3118 15.8273 28.2272C15.9119 28.1426 15.9594 28.0279 15.9594 27.9082C15.9594 27.7885 15.9119 27.6738 15.8273 27.5892C15.7427 27.5046 15.6279 27.457 15.5083 27.457H5.49146Z" fill="#203C60"/>
<path d="M10.5002 24.296C11.4545 24.2949 12.3694 23.9153 13.0442 23.2406C13.719 22.5658 14.0986 21.651 14.0998 20.6967C14.0998 18.8425 11.1739 15.4321 10.8403 15.0493C10.7967 15.0028 10.744 14.9657 10.6855 14.9404C10.627 14.915 10.564 14.902 10.5002 14.902C10.4365 14.902 10.3734 14.915 10.3149 14.9404C10.2564 14.9657 10.2038 15.0028 10.1602 15.0493C9.82655 15.4321 6.90063 18.8425 6.90063 20.6967C6.90179 21.651 7.28142 22.5658 7.95622 23.2406C8.63103 23.9153 9.54592 24.2949 10.5002 24.296ZM10.5002 16.046C11.4799 17.2376 13.1974 19.5595 13.1974 20.6977C13.1974 21.4131 12.9133 22.0991 12.4074 22.6049C11.9016 23.1108 11.2156 23.3949 10.5002 23.3949C9.78486 23.3949 9.09881 23.1108 8.59298 22.6049C8.08715 22.0991 7.80298 21.4131 7.80298 20.6977C7.80298 19.5584 9.52052 17.2366 10.5002 16.045V16.046Z" fill="#203C60"/>
<path d="M9.41919 21.1275H10.0488V21.7571C10.0488 21.8767 10.0963 21.9915 10.1809 22.0761C10.2655 22.1607 10.3803 22.2082 10.4999 22.2082C10.6196 22.2082 10.7344 22.1607 10.819 22.0761C10.9036 21.9915 10.9511 21.8767 10.9511 21.7571V21.1275H11.5807C11.7003 21.1275 11.8151 21.0799 11.8997 20.9953C11.9843 20.9107 12.0319 20.796 12.0319 20.6763C12.0319 20.5566 11.9843 20.4419 11.8997 20.3573C11.8151 20.2727 11.7003 20.2251 11.5807 20.2251H10.9511V19.5953C10.9511 19.4756 10.9036 19.3609 10.819 19.2763C10.7344 19.1917 10.6196 19.1441 10.4999 19.1441C10.3803 19.1441 10.2655 19.1917 10.1809 19.2763C10.0963 19.3609 10.0488 19.4756 10.0488 19.5953V20.2251H9.41919C9.29953 20.2251 9.18477 20.2727 9.10016 20.3573C9.01555 20.4419 8.96802 20.5566 8.96802 20.6763C8.96802 20.796 9.01555 20.9107 9.10016 20.9953C9.18477 21.0799 9.29953 21.1275 9.41919 21.1275Z" fill="#203C60"/>
<path d="M5.77197 25.0658C5.65231 25.0658 5.53756 25.1133 5.45295 25.198C5.36834 25.2826 5.3208 25.3973 5.3208 25.517C5.3208 25.6366 5.36834 25.7514 5.45295 25.836C5.53756 25.9206 5.65231 25.9682 5.77197 25.9682H15.2272C15.3469 25.9682 15.4617 25.9206 15.5463 25.836C15.6309 25.7514 15.6784 25.6366 15.6784 25.517C15.6784 25.3973 15.6309 25.2826 15.5463 25.198C15.4617 25.1133 15.3469 25.0658 15.2272 25.0658H5.77197Z" fill="#203C60"/>
</svg>
