<svg width="33" height="33" viewBox="0 0 33 33" fill="none" xmlns="http://www.w3.org/2000/svg">
<g clip-path="url(#clip0)">
<path d="M16.175 24.6707C15.9116 24.6161 14.6764 24.8288 13.4992 24.1944C13.264 24.0676 12.9709 24.1556 12.8442 24.3906C12.7175 24.6257 12.8054 24.9189 13.0404 25.0456C13.1406 25.0997 13.2412 25.1488 13.3419 25.1934C12.3555 25.6267 11.5586 26.4088 11.0931 27.5647C10.6514 26.4833 9.8944 25.6612 8.84329 25.1921C9.91528 24.7138 10.6611 23.8772 11.0931 22.8198C11.1856 23.0482 11.2701 23.2069 11.2733 23.2134C11.3946 23.4512 11.6859 23.5456 11.9238 23.4243C12.1616 23.3029 12.256 23.0117 12.1346 22.7738C12.1332 22.7674 11.5479 21.6991 11.617 20.2773C11.6565 20.0108 11.4698 19.7459 11.1849 19.6935C10.9257 19.6425 10.6385 19.8069 10.5717 20.0981C10.5372 20.249 10.7873 22.8598 8.8926 24.0711C7.65916 24.858 6.25885 24.6134 5.99795 24.6726C5.44642 24.7981 5.44687 25.5863 5.99795 25.7118C6.25563 25.7698 7.6834 25.5259 8.91722 26.3291C10.7495 27.5229 10.5473 30.0643 10.5596 30.1782C10.5596 30.7743 11.4114 30.9085 11.5994 30.3269C11.6631 30.1288 11.3955 27.6082 13.2046 26.3694C14.3966 25.5527 15.8737 25.7497 16.1308 25.7207C16.719 25.6547 16.7715 24.7969 16.175 24.6707Z" fill="#203C60"/>
<path d="M32.4821 15.2385C31.5983 15.1404 25.2979 16.0254 22.5444 10.2442C21.0969 7.20328 21.4682 4.44656 21.3893 4.1007C21.3183 3.78978 21.0243 3.60351 20.7432 3.63941C20.4227 3.6757 20.2101 3.94112 20.2101 4.20834V5.46286C19.9916 9.77554 18.029 13.4468 13.9078 14.739C11.5278 15.4856 9.46172 15.1631 9.07597 15.2475C8.45735 15.3879 8.45271 16.2764 9.08254 16.4163C9.62189 16.5301 13.6797 15.8727 16.8309 18.4897C17.0364 18.6602 17.3412 18.6319 17.5118 18.4266C17.6823 18.2212 17.6542 17.9164 17.4487 17.7458C16.3675 16.8478 15.0715 16.2061 13.5886 15.8333C17.4927 14.8499 19.889 12.0631 20.8062 8.15945C21.7158 12.0392 24.0923 14.8507 28.0384 15.8292C24.1317 16.8067 21.7023 19.5912 20.8006 23.4842C20.465 22.0573 19.905 20.6916 19.0632 19.499C18.9093 19.2808 18.6076 19.2288 18.3894 19.3827C18.1712 19.5367 18.1193 19.8384 18.2732 20.0565C18.5699 20.4769 18.8369 20.935 19.0672 21.418C20.4329 24.2872 20.1916 27.2063 20.2113 27.4879C20.2623 28.2072 21.4359 28.2434 21.3991 27.354C21.3328 25.751 21.4572 20.3203 25.8436 17.7434C28.8035 16.0062 32.0961 16.5137 32.5356 16.4148C33.1981 16.2644 33.1264 15.3108 32.4821 15.2385Z" fill="#203C60"/>
<path d="M10.5901 7.28592C10.2628 7.21805 7.68196 7.67496 6.52902 5.34897C5.98703 4.25778 6.02467 3.04452 6.03208 2.89241C6.07088 2.62912 5.8881 2.36144 5.59954 2.30878C5.34192 2.2578 5.05336 2.42125 4.98665 2.71419C4.95224 2.86437 5.20212 5.47517 3.30765 6.6865C2.11746 7.44576 0.728366 7.24963 0.466557 7.27883C-0.121706 7.34573 -0.169273 8.19451 0.412933 8.32709C0.694077 8.39039 2.09161 8.13683 3.33221 8.94443C4.6544 9.80578 4.92916 11.3877 4.9746 12.2624C4.98085 12.7623 4.95875 12.8204 4.998 12.9423C5.07025 13.1658 5.2745 13.316 5.50615 13.316C5.77208 13.3161 5.98755 13.1194 6.03021 12.8785C6.05973 12.7132 5.9307 11.4561 6.543 10.2394C6.66302 10.0009 6.56698 9.71026 6.3285 9.59018C6.08996 9.47004 5.79934 9.56621 5.67927 9.80468C5.61817 9.92618 5.56138 10.0522 5.50898 10.1821C5.06754 9.10002 4.31048 8.27721 3.25847 7.8076C4.33039 7.32904 5.07612 6.49263 5.50814 5.43515C5.93992 6.50036 6.67964 7.33316 7.75614 7.80928C7.65063 7.85588 7.54512 7.90725 7.44038 7.96384C7.20545 8.09087 7.11812 8.3842 7.24522 8.61913C7.37226 8.854 7.66552 8.94133 7.90052 8.81436C9.04159 8.19703 10.2882 8.36493 10.5459 8.33625C11.1372 8.26844 11.1821 7.41115 10.5901 7.28592Z" fill="#203C60"/>
</g>
<defs>
<clipPath id="clip0">
<rect width="33" height="33" fill="white"/>
</clipPath>
</defs>
</svg>
