<svg width="13" height="33" viewBox="0 0 13 33" fill="none" xmlns="http://www.w3.org/2000/svg">
<path fill-rule="evenodd" clip-rule="evenodd" d="M6.5 9C8.98528 9 11 6.98528 11 4.5C11 2.01472 8.98528 0 6.5 0C4.01472 0 2 2.01472 2 4.5C2 6.98528 4.01472 9 6.5 9ZM6.5 8C8.433 8 10 6.433 10 4.5C10 2.567 8.433 1 6.5 1C4.567 1 3 2.567 3 4.5C3 6.433 4.567 8 6.5 8Z" fill="#203C60"/>
<rect y="8" width="13" height="1" rx="0.5" fill="#203C60"/>
<rect y="31" width="13" height="1" rx="0.5" fill="#203C60"/>
<rect x="3" y="9" width="22" height="0.999999" transform="rotate(90 3 9)" fill="#203C60"/>
<rect x="11" y="9" width="22" height="0.999999" transform="rotate(90 11 9)" fill="#203C60"/>
<path d="M11.5 8.5L2.5 15L2.5 13.5L9.5 8.5H11.5Z" fill="#203C60"/>
<path d="M11 14L2.73803 19.9853L2.73803 18.4853L10.9999 12.5L11 14Z" fill="#203C60"/>
<path d="M10.9999 19.0184L1.99988 25.5184L1.99988 24.0184L11 17.5L10.9999 19.0184Z" fill="#203C60"/>
<path d="M11 24L2.73802 29.9853L2.73802 28.4853L11 22.5L11 24Z" fill="#203C60"/>
<path d="M10.7381 28.8962L6.5 32L5.5 31L10.7381 27.4853L10.7381 28.8962Z" fill="#203C60"/>
</svg>
